<?xml version="1.0" standalone="no"?>
<!DOCTYPE svg PUBLIC "-//W3C//DTD SVG 20010904//EN"
 "http://www.w3.org/TR/2001/REC-SVG-20010904/DTD/svg10.dtd">
<svg version="1.0" xmlns="http://www.w3.org/2000/svg"
 width="1024.000000pt" height="1024.000000pt" viewBox="0 0 1024.000000 1024.000000"
 preserveAspectRatio="xMidYMid meet">
<metadata>
Created by potrace 1.14, written by Peter Selinger 2001-2017
</metadata>
<g transform="translate(0.000000,1024.000000) scale(0.100000,-0.100000)"
fill="#000000" stroke="none">
<path d="M2947 9603 c-4 -3 -33 -7 -64 -9 -94 -5 -247 -25 -308 -40 -5 -1 -26
-5 -45 -8 -32 -6 -84 -20 -180 -49 -19 -5 -35 -9 -35 -7 0 1 -18 -5 -40 -15
-22 -9 -60 -23 -85 -31 -61 -20 -66 -22 -220 -99 -74 -37 -142 -73 -151 -81
-8 -8 -18 -14 -22 -14 -5 0 -146 -91 -172 -111 -143 -112 -276 -236 -375 -349
-30 -34 -65 -74 -78 -88 -42 -48 -191 -277 -240 -372 -44 -84 -130 -277 -137
-305 -1 -5 -5 -17 -8 -25 -10 -26 -39 -120 -41 -133 -1 -7 -5 -18 -10 -25 -4
-7 -5 -16 -2 -19 3 -3 1 -12 -6 -20 -6 -7 -8 -16 -5 -19 3 -3 -1 -23 -8 -45
-8 -22 -14 -43 -14 -47 -1 -10 -13 -93 -18 -117 -6 -33 -16 -128 -17 -162 0
-18 -3 -33 -6 -33 -3 0 -6 -498 -7 -1108 -1 -609 -4 -2121 -7 -3361 -5 -2203
-5 -2254 13 -2220 10 19 16 39 13 44 -3 6 -1 7 3 2 7 -6 31 36 35 61 1 4 7 14
14 22 6 8 21 33 33 55 11 22 38 72 58 110 20 39 41 75 46 81 5 6 6 14 2 17 -3
4 -2 7 3 7 6 0 16 16 23 35 7 19 17 35 22 35 5 0 9 6 9 14 0 8 15 40 33 73 18
32 48 90 67 128 19 39 38 72 41 75 3 3 31 55 63 115 32 61 63 116 68 123 6 6
8 12 5 12 -4 0 9 27 28 59 19 33 35 64 35 70 0 6 4 11 8 11 4 0 13 12 19 27
14 32 175 289 198 316 8 9 15 19 15 22 0 7 123 199 131 205 3 3 9 15 13 28 4
12 12 22 17 22 5 0 9 4 9 9 0 7 55 93 140 221 5 8 103 155 216 325 114 171
219 326 235 346 16 20 29 41 29 47 0 6 3 12 8 14 4 1 30 37 57 78 28 41 56 79
63 83 6 4 12 15 12 22 0 8 4 15 8 15 4 0 16 15 27 33 10 17 23 37 27 42 5 6
59 80 120 165 62 85 116 157 120 158 4 2 8 10 8 18 0 8 5 14 10 14 6 0 10 6
10 14 0 8 4 16 8 18 5 2 50 59 101 128 109 148 133 180 146 194 6 6 42 54 81
106 40 52 79 104 88 115 9 11 48 61 86 110 38 50 79 100 90 112 11 12 20 24
20 27 0 2 11 17 24 32 14 16 66 81 116 144 137 171 153 191 177 219 13 14 26
31 30 36 16 20 181 221 199 241 11 12 33 38 49 59 17 20 38 46 48 57 9 12 17
25 17 30 0 4 7 8 15 8 8 0 15 5 15 10 0 9 15 28 65 84 6 6 32 38 60 71 27 33
52 62 55 65 3 3 43 50 90 105 86 101 126 147 169 194 12 14 39 46 60 70 20 24
47 55 60 70 237 262 576 601 785 786 38 33 80 71 95 85 15 14 55 50 91 80 35
30 69 61 76 68 7 6 17 12 23 12 6 0 11 4 11 8 0 5 30 33 68 63 37 29 69 56 72
59 3 4 55 46 115 94 61 48 117 93 125 100 9 6 42 32 75 56 33 25 62 47 65 50
3 3 32 25 65 50 33 25 62 48 63 53 2 4 9 7 15 7 7 0 23 10 37 23 14 12 38 31
55 41 16 11 34 23 40 28 5 5 55 40 110 78 55 38 105 74 112 79 7 6 17 11 23
11 5 0 10 5 10 10 0 6 4 10 10 10 11 0 103 62 108 73 2 4 8 7 13 7 5 0 31 15
57 33 26 18 119 78 207 132 88 55 162 103 163 107 2 4 12 8 22 8 11 0 24 8 29
18 6 9 11 14 11 10 0 -4 28 9 63 30 104 64 272 157 279 155 3 -1 12 4 18 12 7
8 19 15 26 15 8 0 14 4 14 8 0 4 16 14 35 21 19 7 35 16 35 20 0 4 6 8 13 8 6
0 68 30 137 67 68 36 130 66 137 66 7 0 13 5 13 10 0 6 4 10 9 10 5 0 60 24
122 54 229 108 294 138 304 140 6 1 30 11 55 23 42 21 89 40 100 41 3 1 34 14
70 30 71 31 102 45 110 46 6 1 60 23 105 42 17 6 53 20 80 29 28 10 64 23 80
30 17 7 86 31 155 55 69 23 132 44 140 47 8 4 17 7 20 8 3 0 15 5 28 9 53 18
29 -5 -45 -42 -142 -72 -248 -127 -253 -132 -3 -3 -18 -12 -35 -20 -16 -8 -32
-17 -35 -20 -3 -3 -23 -14 -45 -25 -22 -11 -79 -44 -128 -72 -48 -29 -92 -53
-97 -53 -4 0 -10 -3 -12 -7 -4 -9 -50 -37 -90 -55 -16 -7 -28 -16 -28 -20 0
-4 -4 -8 -9 -8 -11 0 -169 -98 -189 -117 -7 -7 -18 -13 -23 -13 -5 0 -15 -5
-22 -10 -7 -6 -91 -63 -187 -126 -96 -64 -184 -125 -196 -135 -11 -11 -24 -19
-28 -19 -5 0 -21 -10 -36 -22 -15 -13 -37 -30 -50 -38 -12 -8 -28 -21 -36 -27
-7 -7 -17 -13 -23 -13 -5 0 -14 -6 -18 -12 -4 -7 -30 -29 -58 -48 -27 -19 -51
-38 -53 -42 -2 -4 -9 -8 -16 -8 -6 0 -18 -9 -26 -20 -8 -11 -20 -20 -26 -20
-7 0 -14 -3 -16 -7 -1 -5 -30 -28 -63 -53 -33 -25 -64 -50 -70 -56 -5 -6 -38
-33 -72 -60 -35 -27 -63 -52 -63 -56 0 -5 -5 -8 -11 -8 -6 0 -16 -6 -23 -12
-7 -7 -35 -32 -62 -55 -266 -225 -517 -469 -722 -702 -31 -35 -64 -71 -72 -80
-9 -9 -33 -38 -55 -66 -22 -27 -42 -52 -45 -55 -3 -3 -21 -25 -40 -50 -19 -25
-39 -50 -45 -56 -5 -6 -17 -22 -25 -34 -8 -12 -23 -32 -33 -43 -10 -12 -26
-34 -35 -49 -9 -16 -20 -28 -24 -28 -4 0 -8 -4 -8 -9 0 -5 -33 -58 -74 -117
-136 -201 -264 -439 -357 -664 -55 -131 -71 -172 -70 -177 1 -2 -10 -27 -22
-55 -13 -29 -27 -66 -32 -83 -10 -36 -10 -36 -18 -55 -22 -53 -75 -220 -70
-220 3 0 1 -6 -4 -12 -8 -10 -51 -135 -58 -168 -6 -26 -30 -101 -41 -127 -8
-17 -14 -36 -14 -42 0 -11 -18 -68 -111 -361 -29 -91 -54 -169 -55 -175 -1 -5
-21 -64 -44 -130 -23 -66 -42 -124 -44 -130 -2 -5 -9 -23 -15 -40 -7 -16 -14
-34 -15 -40 -2 -5 -7 -19 -11 -30 -5 -11 -17 -42 -27 -70 -10 -27 -23 -59 -28
-70 -5 -11 -23 -54 -40 -95 -18 -41 -54 -121 -81 -178 -27 -56 -49 -105 -48
-108 0 -4 -3 -10 -8 -13 -5 -3 -18 -24 -29 -46 -28 -59 -127 -219 -136 -223
-4 -2 -8 -10 -8 -18 0 -8 -4 -14 -10 -14 -5 0 -10 -5 -10 -10 0 -10 -23 -45
-57 -89 -7 -9 -26 -34 -43 -56 -90 -119 -201 -238 -310 -335 -40 -36 -82 -73
-92 -83 -10 -9 -20 -17 -23 -17 -5 0 -75 -52 -121 -89 -6 -5 -30 -22 -54 -37
-24 -16 -55 -37 -69 -46 -14 -10 -37 -23 -51 -28 -13 -6 -27 -15 -30 -19 -3
-5 -25 -19 -50 -31 -25 -12 -47 -25 -50 -29 -3 -3 -36 -22 -75 -41 -38 -19
-73 -39 -77 -45 -4 -5 -8 -7 -8 -3 0 4 -33 -10 -72 -31 -40 -21 -111 -55 -158
-76 -47 -20 -113 -50 -148 -66 -35 -16 -66 -29 -68 -29 -3 0 -26 -9 -52 -21
-152 -68 -280 -121 -288 -119 -4 1 -10 -2 -13 -7 -7 -10 -106 -53 -138 -60
-13 -3 -23 -9 -23 -13 0 -4 -12 -11 -27 -15 -16 -4 -60 -22 -99 -41 -39 -19
-76 -34 -82 -34 -6 0 -12 -3 -14 -7 -1 -5 -32 -21 -68 -38 -105 -49 -394 -207
-410 -225 -3 -3 -21 -14 -40 -24 -36 -20 -267 -168 -285 -183 -6 -4 -39 -28
-75 -53 -36 -24 -66 -48 -68 -52 -2 -4 -8 -8 -13 -8 -8 0 -71 -44 -125 -88
-12 -9 -34 -26 -50 -37 -31 -23 -183 -144 -200 -160 -6 -5 -30 -26 -53 -45
-24 -19 -66 -56 -93 -82 -28 -26 -52 -48 -53 -48 -6 0 -183 -182 -214 -221
-19 -23 -40 -47 -45 -53 -6 -6 -23 -28 -38 -48 l-28 -37 28 0 c15 -1 34 -1 42
-2 8 0 29 0 45 0 17 1 37 1 45 1 8 -1 39 1 68 2 28 2 52 0 52 -3 0 -3 20 -3
45 1 25 4 45 4 45 -1 0 -4 16 -3 35 1 19 4 37 4 40 0 3 -4 20 -4 39 0 19 4 37
5 40 2 7 -7 154 -5 165 3 5 3 12 1 15 -4 3 -5 21 -5 41 -1 19 4 37 4 40 0 3
-4 21 -4 40 0 19 4 37 4 40 0 3 -4 21 -4 40 0 19 4 37 4 40 0 3 -4 21 -4 40 0
19 4 37 4 40 0 3 -4 21 -4 40 0 19 4 37 4 40 0 3 -4 21 -4 40 0 19 4 37 4 40
0 3 -4 22 -4 42 1 21 4 38 8 38 8 0 -6 87 -14 90 -9 3 4 21 4 40 0 19 -4 35
-4 35 0 0 4 18 4 40 0 22 -4 40 -4 40 0 0 4 20 4 45 0 25 -4 45 -4 45 -1 0 7
96 5 115 -2 6 -3 17 -2 24 3 7 4 28 4 46 0 18 -4 39 -4 45 0 7 4 26 4 41 0 16
-5 31 -5 34 -1 2 5 23 5 45 1 22 -4 40 -4 40 0 0 4 20 4 45 0 25 -4 45 -4 45
-1 0 7 96 5 115 -2 6 -3 17 -2 24 3 7 4 28 4 46 0 18 -4 38 -4 45 0 7 4 24 5
38 1 14 -4 45 -4 69 -1 24 4 43 4 43 1 0 -7 127 -4 146 3 8 3 16 1 19 -3 3 -5
21 -5 40 -1 19 4 37 4 40 0 3 -4 21 -4 40 0 19 4 37 4 40 0 3 -4 21 -4 40 0
19 4 37 4 40 0 3 -4 21 -4 40 0 19 4 37 4 40 0 3 -4 21 -4 40 0 19 4 37 4 40
0 3 -4 21 -4 40 0 19 4 37 4 40 0 3 -4 20 -5 37 -1 33 7 92 5 116 -4 6 -2 12
-1 12 3 0 7 126 6 147 -2 7 -3 15 -1 17 3 3 5 23 6 43 2 21 -3 56 -4 78 -1 22
3 51 3 65 -1 14 -3 34 -3 45 1 11 4 32 4 47 -1 15 -4 30 -4 33 1 3 4 20 4 39
0 19 -4 39 -4 46 0 7 4 27 4 46 0 19 -4 34 -5 34 -1 0 4 19 5 43 1 23 -3 63
-3 88 0 26 4 55 3 64 0 10 -4 38 -3 62 0 23 4 43 4 43 -1 0 -4 16 -3 35 1 19
4 37 4 40 0 3 -4 20 -4 39 0 19 4 37 5 40 2 7 -7 154 -5 165 3 5 3 12 1 15 -4
3 -5 21 -5 41 -1 19 4 37 4 40 0 3 -4 21 -4 40 0 19 4 37 4 40 0 3 -4 21 -4
40 0 19 4 37 4 40 0 3 -4 21 -4 40 0 19 4 37 4 40 0 3 -4 21 -4 40 0 19 4 37
4 40 0 3 -4 21 -4 40 0 19 4 37 4 40 0 3 -4 22 -4 42 1 21 4 40 7 43 7 36 -10
81 -14 85 -8 3 4 21 4 40 0 19 -4 35 -4 35 0 0 4 18 4 40 0 22 -4 40 -4 40 0
0 4 20 4 45 0 25 -4 45 -4 45 -1 0 7 96 5 115 -2 6 -3 17 -2 24 3 7 4 28 4 46
0 18 -4 39 -4 45 0 7 4 26 4 41 0 16 -5 31 -5 34 -1 2 5 23 5 45 1 22 -4 40
-4 40 0 0 4 20 4 45 0 25 -4 45 -4 45 -1 0 7 96 5 115 -2 6 -3 17 -2 24 3 7 4
28 4 46 0 18 -4 38 -4 45 0 7 4 24 5 38 1 14 -4 45 -4 69 -1 24 4 43 4 43 1 0
-7 127 -4 145 3 7 2 18 1 25 -4 7 -4 24 -4 39 -1 14 4 41 4 59 0 17 -4 32 -4
32 0 0 3 30 6 68 7 76 1 232 13 241 18 3 2 30 7 60 11 63 8 86 12 111 20 10 3
27 8 39 10 66 13 281 80 346 109 17 8 59 26 95 42 36 16 67 32 68 36 2 4 10 8
18 8 7 0 36 14 62 30 27 17 52 30 56 30 4 0 12 5 19 10 16 14 135 89 145 92 4
1 13 8 21 15 7 8 50 42 95 76 44 34 119 99 166 144 47 46 88 83 92 83 5 0 8 4
8 9 0 4 12 21 28 37 32 35 141 169 165 204 9 14 30 44 47 68 16 23 30 45 30
47 0 2 15 25 32 52 18 26 33 54 35 62 1 8 5 17 10 20 8 6 66 122 101 201 48
112 97 258 127 380 25 102 27 113 30 145 1 17 5 41 9 55 3 14 9 45 13 70 11
76 15 6872 3 6865 -5 -3 -24 -2 -42 3 -18 4 -48 5 -66 1 -18 -3 -34 -3 -37 1
-3 4 -21 4 -40 0 -20 -4 -38 -4 -41 1 -3 5 -13 5 -22 1 -9 -5 -28 -6 -42 -2
-14 3 -40 3 -58 -1 -17 -4 -34 -3 -37 1 -3 4 -20 4 -39 0 -20 -4 -39 -3 -44 2
-6 6 -12 6 -16 0 -3 -6 -20 -7 -40 -2 -19 4 -38 5 -41 2 -3 -3 -33 -4 -68 -3
-34 1 -69 2 -77 2 -8 -1 -44 -1 -80 0 -36 0 -71 0 -77 -1 -27 -1 -50 -1 -102
0 -29 0 -56 -1 -58 -4 -3 -2 -17 -1 -31 3 -15 5 -36 5 -47 1 -11 -4 -32 -4
-47 1 -15 4 -30 4 -33 -1 -3 -4 -20 -4 -39 0 -19 4 -39 4 -46 0 -7 -4 -27 -4
-46 0 -19 4 -34 5 -34 1 0 -4 -19 -5 -42 -1 -24 3 -64 3 -89 0 -26 -4 -55 -3
-64 0 -10 4 -38 3 -62 0 -23 -4 -43 -4 -43 1 0 4 -16 3 -35 -1 -19 -4 -37 -4
-40 0 -3 4 -20 4 -39 0 -19 -4 -37 -5 -40 -2 -7 7 -154 5 -165 -3 -5 -3 -12
-1 -15 4 -3 5 -21 5 -41 1 -19 -4 -37 -4 -40 0 -3 4 -21 4 -40 0 -19 -4 -37
-4 -40 0 -3 4 -21 4 -40 0 -19 -4 -37 -4 -40 0 -3 4 -21 4 -40 0 -19 -4 -37
-4 -40 0 -3 4 -21 4 -40 0 -19 -4 -37 -4 -40 0 -3 4 -21 4 -40 0 -19 -4 -37
-4 -40 0 -3 4 -20 5 -37 1 -40 -9 -43 -9 -91 -1 -20 4 -40 4 -42 0 -3 -4 -21
-4 -40 0 -19 4 -35 4 -35 0 0 -4 -18 -4 -40 0 -22 4 -40 4 -40 0 0 -4 -20 -4
-45 0 -25 4 -45 4 -45 1 0 -7 -96 -5 -115 2 -6 3 -17 2 -24 -3 -7 -4 -28 -4
-46 0 -18 4 -39 4 -45 0 -7 -4 -26 -4 -41 0 -16 5 -31 5 -34 1 -2 -5 -23 -5
-45 -1 -22 4 -40 4 -40 0 0 -4 -20 -4 -45 0 -25 4 -45 4 -45 1 0 -7 -96 -5
-115 2 -6 3 -17 2 -24 -3 -7 -4 -28 -4 -46 0 -18 4 -38 4 -45 0 -7 -4 -24 -5
-38 -1 -14 4 -45 4 -69 1 -24 -4 -43 -4 -43 -1 0 7 -127 4 -146 -3 -8 -3 -16
-1 -19 3 -3 5 -21 5 -40 1 -19 -4 -37 -4 -40 0 -3 4 -21 4 -40 0 -19 -4 -37
-4 -40 0 -3 4 -21 4 -40 0 -19 -4 -37 -4 -40 0 -3 4 -21 4 -40 0 -19 -4 -37
-4 -40 0 -3 4 -21 4 -40 0 -19 -4 -37 -4 -40 0 -3 4 -21 4 -40 0 -19 -4 -37
-4 -40 0 -3 4 -20 5 -37 1 -33 -7 -92 -5 -115 4 -7 2 -13 1 -13 -3 0 -7 -126
-6 -147 2 -7 3 -15 1 -17 -3 -3 -5 -23 -6 -43 -2 -21 3 -56 4 -78 1 -22 -3
-51 -3 -65 1 -14 3 -34 3 -45 -1 -11 -4 -32 -4 -47 1 -15 4 -30 4 -33 -1 -3
-4 -20 -4 -39 0 -19 4 -39 4 -46 0 -7 -4 -27 -4 -46 0 -19 4 -34 5 -34 1 0 -4
-19 -5 -42 -1 -24 3 -64 3 -89 0 -26 -4 -55 -3 -64 0 -10 4 -38 3 -62 0 -23
-4 -43 -4 -43 1 0 4 -16 3 -35 -1 -19 -4 -37 -4 -40 0 -3 4 -20 4 -39 0 -19
-4 -37 -5 -40 -2 -7 7 -154 5 -165 -3 -5 -3 -12 -1 -15 4 -3 5 -21 5 -41 1
-19 -4 -37 -4 -40 0 -3 4 -21 4 -40 0 -19 -4 -37 -4 -40 0 -3 4 -21 4 -40 0
-19 -4 -37 -4 -40 0 -3 4 -21 4 -40 0 -19 -4 -37 -4 -40 0 -3 4 -21 4 -40 0
-19 -4 -37 -4 -40 0 -3 4 -21 4 -40 0 -19 -4 -37 -4 -40 0 -3 4 -22 4 -42 -1
-21 -4 -40 -7 -43 -7 -36 10 -81 14 -85 8 -3 -4 -21 -4 -40 0 -19 4 -35 5 -35
1 0 -8 -63 -6 -77 2 -6 4 -13 4 -16 0z"/>
</g>
</svg>
